<?xml version="1.0" encoding="utf-8"?>
<!-- Generator: Adobe Illustrator 25.2.1, SVG Export Plug-In . SVG Version: 6.00 Build 0)  -->
<svg version="1.1" id="Layer_1" xmlns="http://www.w3.org/2000/svg" xmlns:xlink="http://www.w3.org/1999/xlink" x="0px" y="0px"
	 viewBox="0 0 1345 2092" style="enable-background:new 0 0 1345 2092;" xml:space="preserve">
<style type="text/css">
	.st0{fill:#FFFFFF;}
</style>
<g>
	<g id="OFgC5s.tif">
	</g>
	<g>
		<ellipse class="st0" cx="683.5" cy="714" rx="436.5" ry="252"/>
		<g>
			<path class="st0" d="M320,790.7c-58.9,0-114.6,0.1-170.2-0.1c-7.3,0-11.2,3-11.2,10.2c-0.1,10.8,0.2,21.6,0.2,32.5
				c0.1,145.7,0,291.4,0.3,437c0,15,0.8,30.3,3.9,44.9c8.2,39.2,15.7,78.4,31.8,115.7c15.9,36.7,34.5,71.5,57.4,104.1
				c32.1,45.8,73.6,83,113.4,121.6c25.5,24.7,51.2,49.2,76.5,74.1c25.1,24.6,49.3,50,75.2,73.8c13.1,12.1,28.3,22.1,43.5,31.7
				c29.6,18.7,62.5,26.8,97.3,30.1c71,6.6,133.3-11.3,185.4-61.2c22.3-21.4,44.9-42.7,67.2-64.1c33.2-31.8,66.5-63.5,99.3-95.6
				c18.2-17.8,36.3-35.7,53.1-54.7c21-23.7,41.7-47.8,60.5-73.2c24.7-33.2,41.9-70.9,53.3-110.2c11.8-40.8,23.1-82.8,25.8-124.8
				c4.7-75.1,3-150.5,3.4-225.8c0.4-76.2,0.2-152.4,0.1-228.6c0-7.1-1-14.1-1.8-21.2c-1.1-10.6-7.9-15.9-17.7-16
				c-55.9-0.3-111.9-0.1-160.1-0.1c22,7.8,50.9,17.1,79,28.4c18.9,7.6,25.5,27,17.7,44.3c-8,17.9-26.8,24.4-46.6,16.4
				c-8.1-3.3-16.4-6.3-24.8-8.9c-48-15.1-96.6-11.9-145.3-4c-35.5,5.8-70.9,11.9-106.4,17.6c-17.2,2.8-38.5-11.2-42.8-27.8
				c-3.7-14.4,5.4-32.4,20.1-37.7c10.6-3.8,21.6-6.9,32.6-8.7c28.9-4.7,57.9-8.5,86.8-12.9c10-1.5,20-3.4,30-5.2
				c-0.1-0.5-0.2-1-0.3-1.4c-167,0-333.9,0-499,0c47.1,8.2,96,16.4,144.8,25.4c21.9,4.1,33.5,20.4,29.8,39
				c-3.8,19.1-24.5,32.7-44.4,29.4c-46.6-7.7-93.1-15.8-139.8-22.8c-46.1-6.9-90.8-0.7-133.4,18.6c-17.4,7.9-37.7,1.1-46.7-16.1
				c-8.4-15.9-2.9-34.2,14.1-44c9-5.2,18.6-9.7,28.5-12.9C279.2,801.6,298.1,796.9,320,790.7z"/>
			<path d="M623.5,676.8c-1.7-2.5-3.4-5.1-5.1-7.6c-1.5-2.3-3.1-4.5-6.2-9.1c-14-4-31.3-9.2-48.8-13.9c-3.8-1-8.4-1.6-11.9-0.3
				c-9.8,3.4-19.3,7.8-27,11c-1-0.4,1.4,0.5,3.6,1.3c-2.9,13.1-22.5,23.2-33.9,17.5c-2.7-1.4-6.8-6.1-6.3-7
				c5.1-9.1-10.2-14.1-4.2-22.7c0.9-1.2,2.7-1.8,2.4-1.6c-1.1-3.7-3.5-7.4-2.7-9.9c1.2-3.8,4.1-8.5,7.4-9.7
				c6.1-2.3,13.3-1.6,19.7-3.5c6.3-1.8,12-5.4,18-8.1c3.7-1.6,7.5-3.5,11.4-4c8.7-1.1,17.5-1.5,26.2-1.9c2.4-0.1,5.7-0.5,7.3,0.8
				c14.6,11.8,37.7,8.2,48.8,26.5c1,1.7,5.3,1.4,10.6,2.5c-11.2-6-12-12.6-4.1-19.3c-16.9-9.3,4-17.3,1-28
				c-11.6,9.9-22.7,18.7-38.1,16.8c-1.2-0.2-2.7,0.2-3.7-0.2c-27.1-12.6-54.8-3.4-82.1-1.6c-24.6,1.6-43.8-7.1-50.1-29.9
				c-5-18.3-11.3-35.5-21.5-51.4c-4.6-7.3-4-14.2,1.1-20.4c17.1-20.5,36.5-38.1,64.7-41.1c4.5-0.5,10.5,0.6,13.9,3.4
				c9.6,7.9,18,4.1,26.2-1.3c13.7-9.2,28.6-11,44.6-9.2c4.4,0.5,9-0.7,13.4-1c0.3-1.2,0.5-2.5,0.8-3.7c-5-3.3-9.9-6.9-15-10
				c-110.7-66.1-221.4-132.2-332-198.3c-15.6-9.3-16.7-15.5-4.2-29.1c26-28.2,55.5-52,88.5-71.6c56.1-33.4,116.9-53.2,181.3-63.4
				C590,66.2,662,70.2,733.3,85c76.3,15.8,148.5,43.6,216,82.8c48.6,28.2,93.8,60.9,135.3,99.1c47.5,43.7,88,93,120.7,148.2
				c28,47.2,48.8,97.8,61.4,151.9c8.2,35.3,12.8,70.7,12.5,106.8c-0.3,38.7-6,76.6-18.3,113.4c-2.6,7.8-3.9,16.3-4,24.5
				c-0.2,142.8,0,285.5-0.3,428.3c-0.2,105.4-28.8,202.9-81.9,293.8c-23,39.3-51.4,74.2-83.5,106.2c-38.2,38.1-77,75.6-115.5,113.6
				c-32.4,32-63.9,64.9-97.2,96c-55.9,52.2-120.8,85.1-199,86.4c-36,0.6-71.8,1.2-107-9.6c-39.4-12.2-75.4-30.9-105.6-58.5
				c-54.5-50.1-108-101.3-160.9-153.1c-38.7-37.9-77.2-76.2-113.3-116.5c-20.2-22.5-37.2-48.5-52.4-74.8
				c-34.2-59.2-56.1-123.3-67.9-190.5c-4.2-23.8-6.4-48.2-6.5-72.4c-0.6-146.5-0.5-293.1-0.1-439.6c0-12.8,3.4-25.5,5.4-38.2
				c1.4-8.7,7-11,15.3-10.9c33.5,0.3,67,0.2,100.5,0.1c13.3,0,33.1-15.6,37.5-28c3-8.5,6.5-17.6,12.3-24.1
				c6.1-6.8,4.1-13.2,2.8-19.5c-5.2-24.5,3.8-45.6,16.1-65.2c12.2-19.4,29.5-34.4,48-48.1c18.3-13.5,33.3-30.5,47.3-48.5
				c9.6-12.2,20.8-23.9,37.7-26.9c6-1.1,11.1-4.4,16.9,2.3c2.3,2.6,10.1,0.4,12.4,0.4c2.4,6.9,4.2,12.3,6.1,17.6
				c2.8,8,3.5,19,9.1,23.3c10.9,8.3,4.8,19.1,1.8,22.9c-10.8,13.9,0.5,26.3-1.2,39.8c0.1-11.4,8.7-13.5,15.1-12.2
				c4.9,1,11.6,7.9,12,12.6c1.2,14.3,6.4,29.4-2.2,43.1c-3.6,5.8-7.6,13-13.2,15.5c-14.6,6.6-15.4,18.3-18.3,31.7
				c-2.6,12.5-9.1,25.8-24.1,30.4c-4,1.2-8,2.6-11.7,4.6c-14.3,7.9-28,7-44.1-5.3c1.9,12.5,3.3,21.4,4.7,30.4
				c3.8-9.7,10-12.2,19.7-10.9c9.7,1.3,19.7,1.2,29.5,0.5c14.6-1,20.2-14.9,30.1-22.8c1-0.8,1.3-2.3,2.3-2.9
				c5.1-3.4,12.4-5.6,14.9-10.3c1.5-2.9-5.1-9.4-6.3-14.7c-2.6-11.5,3-18.5,16.2-21.9c13.8-3.6,27.2,2.4,30.8,14.8
				c2,7.1,2,14.7,3,22.1c1.7,13.2,3.1,26.4,5.5,39.5c0.6,3.3,4.4,6,8.6,11.5c-1.2-20.6-4.4-37.2-2.5-53.3
				c3.9-33.5,34.4-66.7,75.3-58.4c10.8,2.2,20.8,7.6,31.3,11.2C614.8,674.8,619.2,675.7,623.5,676.8c5.3,8,11.3,12.9,22.2,12.7
				c23-0.3,24.6,2.4,24.1,26.7c-0.2,7.4,1.5,14.9,2.3,22.4c1.3-0.1,2.6-0.3,3.9-0.4c0.8-12.3,1.3-24.7,2.6-36.9
				c2.4-22.2,5.5-44.4,7.7-66.6c0.4-4.3-1.1-9.2-2.8-13.3c-11.4-27.8-6.9-44,19.5-54.8c13.2-5.4,29.3-7.6,43.5-5.8
				c21.7,2.7,42.8,10.2,64.1,15.6c-10.6-7.7-21.7-14.8-33.2-21.1c-8.9-4.9-17.3-16-29.2-4.6c-1.2,1.2-4.9-0.5-7.3-0.2
				c-4.3,0.6-8.4,1.9-12.7,2.7c-4.3,0.8-8.7,1.4-13.1,2.1c-3.9,0.7-8.2,0.6-11.7,2.2c-13,6.2-22.1,2-24.1-12.5
				c-1.1-8.1-0.9-16.4-1.3-24.5c9.1,10.4,9.9-4.4,15.3-6.1c0.9-0.3,0.1-5.9,0.1-10.9c-12.5,10.7-24.7,12.9-30.9,4.7
				c-12.4-16.2-28.9-18-47-17.4c-5.7,0.2-11.4-1-17.1-1.6c0-1.6,0-3.1,0.1-4.7c7.2-0.8,14.4-1.6,24-2.7c-15.7,0-29,0-42.5,0
				c4.5,8.5,8.8,16.4,13.2,24.7c11-12.7,26.6-10.6,39.7-5.3c12.5,5,22.7,15.6,33.9,23.8c0.6-0.9,2.2-3.2,3.8-5.5
				c1.1,0.4,2.2,0.8,3.3,1.2c-2.5,12.7-5,25.4-7.5,39.7c0-0.3,0-2.2,0.1-4.2c-8.7,0-17.6,1.4-25.9-0.3c-13.1-2.7-28.6,3.4-39.2-10.6
				c-1.7-2.2-10-0.2-14.9,1.3c-5.3,1.6-10,5.3-15.3,7.2c-7.3,2.7-15.4,3.6-22.4,7c-15.6,7.5-34.7,5.8-47.7-5.4
				c-13.6-11.7-14-34.7-0.8-48.9c1.8-2,3.2-4.4,4.7-6.7c-1.1-0.8-2.1-1.5-3.2-2.3c-10.5,4.5-13.2,15.6-17.1,24.8
				c-8.8,20.9,12.9,55.3,34.4,52.7c19.3-2.3,40.7,4,57.5-11.6c1.6-1.5,4.8-1.8,7.2-1.8c14.2,0,28.4,0.3,42.6,0.4
				c13.3,0.1,26.6,0,39.9-1.6c-1,3.4-2.1,8.4-3.4,14.3c8.2,9.7,11.7,24.3,6.4,35.7c-8.6,18.4-8.8,35.5-4.5,54.2
				c2.2,9.5-2.3,15.6-12.7,15C642.5,679.1,633,677.8,623.5,676.8z M319.8,790.4c-58.9,0-114.6,0.1-170.2-0.1
				c-7.3,0-11.2,3-11.2,10.2c-0.1,10.8,0.2,21.6,0.2,32.5c0.1,145.7,0,291.4,0.3,437c0,15,0.8,30.3,3.9,44.9
				c8.2,39.2,15.7,78.4,31.8,115.7c15.9,36.7,34.5,71.5,57.4,104.1c32.1,45.8,73.6,83,113.4,121.6c25.5,24.7,51.2,49.2,76.5,74.1
				c25.1,24.6,49.3,50,75.2,73.8c13.1,12.1,28.3,22.1,43.5,31.7c29.6,18.7,62.5,26.8,97.3,30.1c71,6.6,133.3-11.3,185.4-61.2
				c22.3-21.4,44.9-42.7,67.2-64.1c33.2-31.8,66.5-63.5,99.3-95.6c18.2-17.8,36.3-35.7,53.1-54.7c21-23.7,41.7-47.8,60.5-73.2
				c24.7-33.2,41.9-70.9,53.3-110.2c11.8-40.8,23.1-82.8,25.8-124.8c4.7-75.1,3-150.5,3.4-225.8c0.4-76.2,0.2-152.4,0.1-228.6
				c0-7.1-1-14.1-1.8-21.2c-1.1-10.6-7.9-15.9-17.7-16c-55.9-0.3-111.9-0.1-160.1-0.1c22,7.8,50.9,17.1,79,28.4
				c18.9,7.6,25.5,27,17.7,44.3c-8,17.9-26.8,24.4-46.6,16.4c-8.1-3.3-16.4-6.3-24.8-8.9c-48-15.1-96.6-11.9-145.3-4
				c-35.5,5.8-70.9,11.9-106.4,17.6c-17.2,2.8-38.5-11.2-42.8-27.8c-3.7-14.4,5.4-32.4,20.1-37.7c10.6-3.8,21.6-6.9,32.6-8.7
				c28.9-4.7,57.9-8.5,86.8-12.9c10-1.5,20-3.4,30-5.2c-0.1-0.5-0.2-1-0.3-1.4c-167,0-333.9,0-499,0c47.1,8.2,96,16.4,144.8,25.4
				c21.9,4.1,33.5,20.4,29.8,39c-3.8,19.1-24.5,32.7-44.4,29.4c-46.6-7.7-93.1-15.8-139.8-22.8c-46.1-6.9-90.8-0.7-133.4,18.6
				c-17.4,7.9-37.7,1.1-46.7-16.1c-8.4-15.9-2.9-34.2,14.1-44c9-5.2,18.6-9.7,28.5-12.9C279,801.4,297.8,796.6,319.8,790.4z
				 M307.3,249.7c5.9,4,9.2,6.5,12.8,8.6c85.2,50.8,170.5,101.5,255.7,152.3C745.4,511.8,915,613.1,1084.6,714.4
				c29.5,17.6,58.8,35.4,88.4,52.9c13.5,8,18.6,5.9,22.4-8.8c2.9-11.3,6.4-22.6,8.3-34.1c7.4-45.5,5.1-90.4-4.6-135.6
				c-11.6-54-32.8-103.6-61.5-150.1c-32.2-52.3-72.7-97.5-119.3-137.7C954,245.5,882,204,802.3,176.1
				c-68.8-24.1-139.7-36.4-213.1-34.7c-89,2.1-170.9,24.9-244,76.5C332.4,227,321,238.1,307.3,249.7z M724,637.2
				c8.5-12.9,22.3-14.8,34.5-20.6c20.6-9.7,39.1-13.9,58.9,0.5c2.8,2.1,8.5,1.3,12.6,0.4c10.2-2.3,31.9,5.5,34.1,13
				c4.1,14.2,1.3,27.9-5.3,40.3c-1.8,3.3-9.6,3.6-14.8,4.9c-3.4,0.8-6.9,0.8-11.1,1.2c-11.1-17.2-19.9-24.4-40.5-29.2
				c-5.6-1.3-12.3,2.5-18.4,2.2c-16.6-0.9-29.1,7.3-40.9,17.2c-9.9,8.4-20.2,14.3-34,11.5c-3.1-0.6-6.8,1.7-10.3,2.7
				c16.2,9.4,23.7,8.4,39.8-2.5c25-17,51.1-20.1,79.8-9c13.7,5.3,21.1,16.2,27.6,26.8c8.5,13.7,13.5,29.3,7.2,46.8
				c-3,8.4-1.7,18.4-2.3,27.7c1,0.5,2.1,1,3.1,1.6c2.1-3.2,5.7-6.3,6.2-9.8c2.2-15.9,4-31.9,5.1-48c1-13.9,7.8-25.2,19.4-29.9
				c6.1-2.4,16.2,3.5,23.9,7c10.9,4.9,10,14.3,5.1,22.6c-3.7,6.4-2.5,10,3,13.4c8.1,5.1,16.7,9.1,18.8,20.3c0.5,2.8,6.2,6.1,9.9,6.6
				c12.9,1.6,26,2.1,39,3.1c2.9,0.2,5.9,0.1,8.5,1.2c15.2,6.1,15.2,6.2,17.6-9.8c0.5-3.4,1-6.7,1.6-11
				c-12.1,5.3-22.1,12.2-36.4,10.4c-12-1.6-33.8-13.7-38.3-26c-4.2-11.7-10.1-22.7-14.7-34.3c-0.8-2,1.7-5.2,2.8-8.1
				c-5.7-2.8-12.3-5.6-18.5-9c-8.2-4.4-14.2-21.5-12.2-30.2c2.2-9.8,0.6-19.1-7.7-26.3c-10.2-8.9-21.8-8.1-34.5-8.2
				c-17.2,0-32.3-15.2-51.9-6.8c-9.9,4.2-22.3,2.1-33.2,4.2c-11.9,2.3-22.8,5-29.5-9.3c-0.9-1.9-6.5-1.5-10-2.2
				c0.4,2.8,0.4,5.8,1.2,8.5c2,6.4,5.3,12.6,6.3,19.1C726.2,625.7,724.5,631.6,724,637.2z M571.4,695.2c-4.4,9.8-7.3,17.3-11.1,24.4
				c-4.3,8-5.9,15.1,0.6,23c5.6,6.8,10,14.6,15.1,22.3c6.9-5.6,15.8-12.1,25.4-3.5c9.2,8.2,19.3,10.5,31,10.5
				c23.6-0.1,47.2-2.7,70.9-0.3c15.3,1.5,30.4,1.1,43.5-10.3c9-7.8,17.6-2.9,25.3,4.5c3.1,3,7.8,4.2,11.8,6.2
				c0.5-1.2,0.9-2.5,1.4-3.7c-3-2.1-6-4.2-10.7-7.5c3.7-4.8,6.6-9.5,10.4-13.4c6.8-7,7.9-19.5,2.8-28.4c-5-8.8-15.6-16.6-4.4-29.1
				c-5.2,2.2-8.7,3.7-11.5,5.9c-2.4,1.9-6.1,5.1-5.7,7.2c0.8,4.9,3.2,9.6,5.7,14c7.3,12.7,5,19.4-8.5,24.5c-8,3.1-17.2,5-23.5,10.3
				c-12.4,10.2-24.6,15.5-40.2,8.6c-3-1.3-6.8-0.9-9.7-2.3c-5.4-2.6-10.5-6-16.4-9.4c-5.2,12.8-16.8,12.8-31.5,12.9
				c-25,0.1-42.2-17.8-64.5-23.1c-2.6-0.6-5.9-7.7-5.3-11.1c2-10.8,5.7-21.2,9-32.6C576.9,694.9,573.2,695.1,571.4,695.2z
				 M253.1,733.8c-0.5,0.9-1,1.8-1.6,2.7c9.5,6.5,19.1,12.8,28.5,19.5c2.9,2.1,7.1,5.1,7.2,7.7c0.2,11.9,7.2,6.9,11,6.8
				c0.2-4.4-0.2-7.9,0.6-11.1c1.7-6.3,3.7-12.6,6.3-18.6c9.9-22.5,22.5-42.4,48.8-48.6c6.1-1.4,12.5-3,17.7-6.1
				c12-7.1,23.8-14.7,34.7-23.2c6.7-5.2,5.4-21.2-0.8-28.3c-3.6,20.4-14.4,33.8-35,40.3c-15.1,4.7-28.6,14.7-43.8,18.3
				c-15.1,3.6-17.6,17.1-24.1,26c-9.5,13.1-17.4,20.8-32.9,17.8C264.3,736,258.7,734.9,253.1,733.8z M386.5,553.8
				c1.4,5.2,3.5,8.6,2.9,11.5c-2.5,13.1-13.2,22-19.2,33.4c-4.6,8.7-16.8,13.4-25.6,19.9c-1.1,0.8-1.9,2-2.8,3.1
				c-3.1,3.4-5.5,8.2-9.3,10.1c-15.1,7.7-30.6,14.5-45,21.2c0.9,7.7,2.2,14.2,2.2,20.6c0,5.9-1.4,11.8-2.2,17.8
				c6.1-7.2,7.4-17,13-22.5c10.7-10.6,23.7-18.8,35.8-28c2.3-1.7,6-2.8,6.9-5c4.5-11.6,15.6-12.8,25-16.9c9.9-4.2,19.4-5.9,28.6,1.6
				c0.2,0.2,1.3-0.7,2.6-1.5c-14.5-22.3-12.8-41.8,13.5-55.3C402.8,559.9,395.1,557,386.5,553.8z M1088.4,742.8
				c-32.4-8.7-48.7-34.4-73.7-46.5c-25.5-12.4-49.5-28.1-74.1-42.3c-0.9,0.7-1.7,1.4-2.6,2.1c2.9,4.4,4.9,10,8.9,12.8
				c11.2,8,23.1,14.9,34.9,22c2.8,1.7,6.1,2.4,9.2,3.4c6.8,2.3,14.4,3.2,20.2,6.9c23.1,14.8,33.7,37.2,37.1,63.8
				c0.3,2.3,3.9,5.1,6.4,5.8c1.6,0.4,4.4-2.3,6.2-4.1c4.6-4.7,8.6-9.9,13.5-14.3C1078.7,748.8,1083.7,746,1088.4,742.8z
				 M564.5,525.2c-0.7-2.2-1.4-4.3-2.2-6.5c-8.1,3.8-16.2,7.6-24.3,11.4c0.3,0.8,0.6,1.5,0.9,2.3C547.4,530,556,527.6,564.5,525.2z
				 M542.4,479.3c0.3,0.8,0.5,1.6,0.8,2.4c8.6-0.9,17.2-1.9,25.9-2.8c-0.4-1.9-0.8-3.8-1.2-5.7C559.4,475.3,550.9,477.3,542.4,479.3
				z"/>
			<path d="M403.2,1484.7c-14.3,9.5-28.1,18.7-42,27.8c-3.5,2.3-7,5.8-10.8,6.2c-6.2,0.7-14.3,1.5-18.5-1.7
				c-3.4-2.7-5-12.3-2.9-16.8c8.9-19.2,18.9-38,29.6-56.4c12-20.6,25-40.6,37.7-60.7c12.1-19.2,26.4-20.5,43.2-5
				c13.6,12.5,24.1,26.6,28.6,44.8c1.8,7.3,6.3,10,13.7,9.9c55.2-0.5,110.5-1.1,165.7-1.1c51.5,0,102.9,0.7,154.4,1
				c18.8,0.1,37.7-0.2,56.5,0.1c8.4,0.2,12.5-2.3,14.5-11.3c4.7-20.7,15.5-37.9,34-49.3c14-8.6,25.9-6.8,34.7,7
				c22.6,35.6,44.5,71.8,66.6,107.7c0.4,0.7,0.8,1.5,1,2.3c2.6,10.2,10.7,21.1,0.2,30.3c-10.3,8.9-18.7-1.2-26.8-6.1
				c-17.5-10.6-34.9-21.5-51.6-33.4c-8.3-5.9-12.1-4.1-16.4,3.8c-9.1,16.9-17.4,34.4-28.1,50.3c-44.3,66.4-106.2,103.7-185.5,115.6
				c-41.4,6.2-80.9,2.7-120.4-7.2c-49.1-12.3-89.4-39.8-121.7-77.9c-18.5-21.8-32.9-47.2-49.1-70.9
				C408.1,1491.1,406,1488.5,403.2,1484.7z M502.9,1506.8c41.6,52.1,96.9,75.3,161.9,73.9c59.9-1.3,111.9-22.5,152.6-73.9
				C710.8,1506.8,607.5,1506.8,502.9,1506.8z"/>
			<path d="M727.4,1064.4c6.6,8.3,12.2,15.9,18.3,23c13.8,16.2,27,33,41.8,48.3c29,30,59.1,58.9,88.4,88.7
				c13,13.2,23.3,28.2,26.8,47.2c6,32.2-7.2,60.5-36.6,75.1c-23.7,11.8-49.1,14.6-74.6,9c-9.7-2.2-19.7-9-26.7-16.3
				c-13.2-13.7-27.1-23.3-46.3-16.4c-7.3,2.6-14.8,8-19.2,14.3c-17.8,25.4-42.2,24.8-57.2-2.2c-7.8-14.1-37.4-19.8-50.3-9.4
				c-3.9,3.1-7.8,6.6-10.6,10.6c-10.2,14.5-24.6,22.1-41.6,22.5c-27.4,0.7-54.5-2.2-77.1-20.1c-24.5-19.4-32.7-53.2-18.5-81.1
				c6.5-12.8,15-25.5,25.4-35.3c52.1-49.1,94-106.2,134.8-164.5c2.4-3.4,6.2-5.9,10.4-9.8c1.8,4,3.5,6.2,3.5,8.3
				c0,19.6,0.8,39.4-0.9,58.9c-3.7,41.6-28.8,72.2-55.4,101.6c-14.9,16.4-30.9,31.8-46.2,47.8c-2.8,3-5.9,6.8-6.4,10.5
				c-0.6,4.5-0.2,11.1,2.7,13.7c2.5,2.4,9.4,1.9,13.4,0.4c7.3-2.8,13.9-7.6,21-11.1c24-11.9,48.3-11.8,72.6-0.7
				c31.6,14.5,64.1,17.1,96,2.6c35.3-16.1,67.8-13.3,99.8,8.1c4.2,2.8,13.4,2.4,17.7-0.4c7.2-4.8,3.1-12.1-1.6-17.3
				c-22.8-25.6-44.9-51.9-68.8-76.4c-34.3-35.1-42.3-77.4-37.8-123.9C724.5,1068.6,725.8,1067.3,727.4,1064.4z"/>
			<path d="M525.7,1058.3c-0.1,58.6-54.8,112.4-115.4,110.6c-67.3-2-115.3-50.4-114.9-112.3c0.4-61.6,49-111.9,118.1-111.2
				C475.6,946,525.8,996.2,525.7,1058.3z M394.2,1075.5c0.5-1.3,1-2.6,1.6-4c-14-3.5-18.8-13.7-21.9-26.2c-1.1-4.3-5.7-9.4-9.8-11
				c-9-3.2-19,4.3-22.4,15c-3.3,10.3,0.1,18.7,11.1,21.2C366.3,1073.6,380.4,1074,394.2,1075.5z M428.6,1073.1
				c14.8-7.2,30-13.6,44-21.9c3.8-2.3,7.4-13.4,5.7-15.1c-6.1-6.1-14.2-10.9-22.3-13.9c-1.9-0.7-8.3,7.2-10.7,12.2
				C439.5,1046,434.9,1058.1,428.6,1073.1z"/>
			<path d="M927.8,1169.3c-54.9,2.6-116.1-56.1-114.1-112.5c2.3-63.3,51.1-111.3,117.9-111.3c61.5,0.1,110.5,50.3,112,111.5
				C1045.2,1123.8,981,1171.5,927.8,1169.3z M911.3,1072c-5.8-13.4-11.6-25.1-15.9-37.3c-2.3-6.6-4-15-12-12.7
				c-8,2.3-15.9,8.2-21.3,14.6c-1.8,2.1,2.5,13.5,6.7,15.9C882.5,1060.3,897.5,1065.9,911.3,1072z M943.5,1072.8
				c13.3,0,26.6,0.6,39.8-0.2c8-0.5,14-4.9,14.5-14.3c0.5-9.7-0.6-18.5-10.8-23c-9.3-4.1-16.8-1.2-19.1,8.6
				C964.6,1058.1,957.4,1068.2,943.5,1072.8z"/>
			<path class="st0" d="M306.6,249.1c5.9,4,9.2,6.5,12.8,8.6C404.6,308.4,489.8,359.1,575,410c169.7,101.2,339.3,202.6,508.9,303.9
				c29.5,17.6,58.8,35.4,88.4,52.9c13.5,8,18.6,5.9,22.4-8.8c2.9-11.3,6.4-22.6,8.3-34.1c7.4-45.5,5.1-90.4-4.6-135.6
				c-11.6-54-32.8-103.6-61.5-150.1c-32.2-52.3-72.7-97.5-119.3-137.7c-64.2-55.4-136.2-96.9-215.9-124.8
				c-68.8-24.1-139.7-36.4-213.1-34.7c-89,2.1-170.9,24.9-244,76.5C331.7,226.3,320.3,237.5,306.6,249.1z"/>
		</g>
	</g>
</g>
</svg>
